<?xml version="1.0" encoding="utf-8"?>
<!-- Generator: Adobe Illustrator 24.3.0, SVG Export Plug-In . SVG Version: 6.00 Build 0)  -->
<svg version="1.1" id="Layer_1" xmlns="http://www.w3.org/2000/svg" xmlns:xlink="http://www.w3.org/1999/xlink" x="0px" y="0px"
	 viewBox="0 0 150.44 16.4" style="enable-background:new 0 0 150.44 16.4;" xml:space="preserve">
<style type="text/css">
	.st0{fill:#0B293A;}
	.st1{fill:#B51E23;}
	.st2{fill:#E21D3E;}
	.st3{fill:#A41E23;}
	.st4{fill:#FFFFFF;}
</style>
<g>
	<g>
		<g>
			<path class="st0" d="M23.46,4.75v2.91h4.86v2.05h-4.86v4.01h-2.43V2.71h7.94v2.05H23.46z"/>
			<path class="st0" d="M30.98,8.21c0-3.27,2.43-5.69,5.75-5.69c3.3,0,5.75,2.41,5.75,5.69s-2.45,5.7-5.75,5.7
				C33.41,13.91,30.98,11.49,30.98,8.21z M40.01,8.21c0-2.09-1.41-3.52-3.29-3.52c-1.88,0-3.29,1.43-3.29,3.52s1.41,3.52,3.29,3.52
				C38.6,11.74,40.01,10.31,40.01,8.21z"/>
			<path class="st0" d="M52.12,13.72l-2.03-3.07h-0.12h-2.12v3.07h-2.43V2.71h4.55c2.81,0,4.56,1.53,4.56,4
				c0,1.65-0.8,2.86-2.16,3.48l2.36,3.54H52.12z M49.84,4.78h-1.98v3.84h1.98c1.49,0,2.24-0.72,2.24-1.92
				C52.07,5.49,51.32,4.78,49.84,4.78z"/>
			<path class="st0" d="M67.14,13.72l-0.01-6.61l-3.09,5.44h-1.1l-3.08-5.3v6.47h-2.28V2.71h2.01l3.93,6.84l3.87-6.84h2l0.03,11.01
				H67.14z"/>
			<path class="st0" d="M76.94,12.63l0.83-1.92c0.89,0.68,2.21,1.15,3.47,1.15c1.44,0,2.03-0.5,2.03-1.18
				c0-2.06-6.11-0.65-6.11-4.74c0-1.87,1.44-3.43,4.43-3.43c1.32,0,2.67,0.33,3.65,0.97l-0.75,1.94c-0.98-0.58-1.98-0.86-2.91-0.86
				c-1.44,0-2,0.57-2,1.26c0,2.03,6.11,0.63,6.11,4.67c0,1.84-1.46,3.41-4.46,3.41C79.55,13.91,77.87,13.39,76.94,12.63z"/>
			<path class="st0" d="M96.6,11.67v2.05h-8.13V2.71h7.94v2.05h-5.52v2.39h4.88v1.98h-4.88v2.55H96.6z"/>
			<path class="st0" d="M106.35,13.72l-2.03-3.07h-0.12h-2.12v3.07h-2.43V2.71h4.55c2.81,0,4.56,1.53,4.56,4
				c0,1.65-0.8,2.86-2.16,3.48l2.36,3.54H106.35z M104.07,4.78h-1.98v3.84h1.98c1.49,0,2.24-0.72,2.24-1.92
				C106.31,5.49,105.56,4.78,104.07,4.78z"/>
			<path class="st0" d="M121.91,2.71l-4.55,11.01h-2.4l-4.53-11.01h2.63l3.2,7.87l3.24-7.87H121.91z"/>
			<path class="st0" d="M123.91,2.71h2.43v11.01h-2.43V2.71z"/>
			<path class="st0" d="M129.3,8.21c0-3.32,2.43-5.69,5.7-5.69c1.82,0,3.33,0.69,4.32,1.95l-1.56,1.51
				c-0.71-0.85-1.59-1.29-2.64-1.29c-1.97,0-3.36,1.45-3.36,3.52s1.4,3.52,3.36,3.52c1.05,0,1.94-0.44,2.64-1.31l1.56,1.51
				c-0.99,1.27-2.51,1.97-4.34,1.97C131.73,13.91,129.3,11.53,129.3,8.21z"/>
			<path class="st0" d="M150.21,11.67v2.05h-8.13V2.71h7.94v2.05h-5.52v2.39h4.88v1.98h-4.88v2.55H150.21z"/>
		</g>
	</g>
</g>
<g>
	<g>
		<g>
			<path class="st1" d="M9.84,4.43c-0.1,0-0.2-0.03-0.28-0.07L9.23,3.88V0.35L9.21,0.22H0.76c-0.34,0-0.61,0.29-0.61,0.64v14.71
				c0,0.35,0.27,0.64,0.61,0.64h11.63l-2.44-2.79L8.52,15.9L6.93,7.86l6.9,3.18V4.43H9.84z"/>
			<polygon class="st1" points="13.84,14.76 13.84,11.27 11.5,12.1 			"/>
		</g>
		<polygon class="st2" points="9.21,0.22 9.21,0.22 9.21,0.22 		"/>
		<polygon class="st3" points="9.56,4.37 13.84,8.47 13.84,4.43 		"/>
		<path class="st2" d="M9.21,0.22L9.21,0.22L9.16,3.78c0,0.36,0.3,0.65,0.68,0.65h3.99v0L9.21,0.22z"/>
	</g>
	<g>
		<path class="st4" d="M13.84,14.76L11.5,12.1l2.33-0.83v-0.23l-6.9-3.18l1.59,8.03l1.43-2.48l2.44,2.79h0.85
			c0.33,0,0.6-0.27,0.6-0.6L13.84,14.76"/>
	</g>
</g>
</svg>
