<?xml version="1.0" encoding="utf-8"?>
<!-- Generator: Adobe Illustrator 24.1.3, SVG Export Plug-In . SVG Version: 6.00 Build 0)  -->
<svg version="1.1" id="Layer_1" xmlns="http://www.w3.org/2000/svg" xmlns:xlink="http://www.w3.org/1999/xlink" x="0px" y="0px"
	 viewBox="0 0 37.5 37.5" style="enable-background:new 0 0 37.5 37.5;" xml:space="preserve">
<style type="text/css">
	.st0{fill:#B51E23;}
	.st1{fill:#E21D3E;}
	.st2{fill:#A41E23;}
	.st3{fill:#FFFFFF;}
</style>
<g>
	<g>
		<path class="st0" d="M24.88,10.61c-0.22,0-0.42-0.06-0.61-0.14l-0.71-1.04v-7.6l-0.05-0.29H5.34c-0.73,0-1.32,0.62-1.32,1.38
			v31.66c0,0.76,0.59,1.38,1.32,1.38h25.02l-5.26-6.01l-3.07,5.34L18.62,18l14.85,6.83V10.61H24.88z"/>
		<polygon class="st0" points="33.47,32.84 33.47,25.32 28.45,27.12 		"/>
	</g>
	<polygon class="st1" points="23.51,1.54 23.51,1.54 23.51,1.54 	"/>
	<polygon class="st2" points="24.28,10.49 33.47,19.29 33.47,10.61 	"/>
	<path class="st1" d="M23.51,1.54L23.51,1.54l-0.11,7.67c-0.01,0.77,0.65,1.4,1.47,1.4h8.6v0L23.51,1.54z"/>
</g>
<g>
	<path class="st3" d="M33.47,32.84l-5.02-5.72l5.02-1.79v-0.5L18.62,18l3.42,17.29l3.07-5.34l5.26,6.01h1.82
		c0.71,0,1.29-0.58,1.29-1.29L33.47,32.84"/>
</g>
</svg>
